<svg xmlns="http://www.w3.org/2000/svg" viewBox="0 0 145 145"><defs><style>.cls-1{fill:#fff;}.cls-1,.cls-2{stroke:#fff;}.cls-2{fill:none;stroke-width:5px;}</style></defs><g id="Calque_2" data-name="Calque 2"><g id="Calque_1-2" data-name="Calque 1"><path class="cls-1" d="M80.14,111.91l0,.29h-14l0-.26L65.68,110c-.29-1.64-.69-4-1.18-6.84-1-5.66-2.29-13.24-3.6-20.86-2.63-15.26-5.27-30.68-5.37-31.45a6.49,6.49,0,0,0-2.66-4.65,9.7,9.7,0,0,0-5.69-1.54,8.77,8.77,0,0,0-7,3.26c-1.77,2.16-2.85,5.32-3,9.41a12.68,12.68,0,0,0,.92,5.41,6.38,6.38,0,0,0,3.12,3.42,15.65,15.65,0,0,0,3.73,1l.18,0c.42.07.74.13,1,.19a4.35,4.35,0,0,1-.63.39,7.19,7.19,0,0,1-4.92.36h0c-3.81-1-6.8-4.33-8.14-9.41A20.14,20.14,0,0,1,37.86,40c4.25-4.35,9.89-6.64,13.75-6.64A16.54,16.54,0,0,1,62.21,37l.32-.39-.32.39a17,17,0,0,1,2.09,2.13,18.25,18.25,0,0,1,1.79,2.44,24.63,24.63,0,0,1,1.82,4.8c.24.84.45,1.61.58,2.16l.17.66a1.46,1.46,0,0,0,0,.17v0h0L77,99.37h1c1.93-12,4-25,5.77-35.3.86-5.16,1.63-9.64,2.22-13s1-5.54,1.19-6.12v0h0a.31.31,0,0,1,0-.08l.09-.32c.09-.28.22-.67.41-1.15a16.47,16.47,0,0,1,1.94-3.5,11.84,11.84,0,0,1,10-5,10.57,10.57,0,0,1,7.94,3.32c2.21,2.28,4,5.83,5.25,10.88h0v.07c0,.06,0,.15,0,.27s.07.59.1,1a28.29,28.29,0,0,1,0,3.67,26,26,0,0,1-2.69,10.65,7.51,7.51,0,0,1-5,4,7.92,7.92,0,0,1-4.86-.31l-.21.46.21-.46a2.72,2.72,0,0,1-1-.71,1,1,0,0,1-.27-.46h0a12.76,12.76,0,0,1,1.57-.14,10.08,10.08,0,0,0,1.91-.21,4.94,4.94,0,0,0,1.37-.59h0a5.66,5.66,0,0,0,2-2.42,14.21,14.21,0,0,0,1.2-4,26.11,26.11,0,0,0-.62-10.68c-1.24-4.73-4.1-7.06-7-7.55A6.38,6.38,0,0,0,92.69,45a10.92,10.92,0,0,0-.51,1.58c-.2.71-.42,1.63-.66,2.71-.49,2.16-1.08,5-1.72,8.26-1.28,6.55-2.79,14.85-4.24,23s-2.84,16.19-3.86,22.17c-.51,3-.93,5.47-1.22,7.21C80.33,110.76,80.22,111.44,80.14,111.91Z"/><circle class="cls-2" cx="72.5" cy="72.5" r="70"/></g></g></svg>