<svg xmlns="http://www.w3.org/2000/svg" viewBox="0 0 166.82 79.87"><defs><style>.cls-1{fill:#fff;stroke:#fff;}</style></defs><g id="Calque_2" data-name="Calque 2"><g id="Calque_1-2" data-name="Calque 1"><path class="cls-1" d="M106.12,73.65l-.88-.9,0,1.26.09,5.36H96.68V51.14h6.62l.37,0c.31,0,.76.06,1.31.15a14.05,14.05,0,0,1,4,1.22,9.68,9.68,0,0,1,3.88,3.24,10.83,10.83,0,0,1,1.68,6.37h0v.08c0,.05,0,.14,0,.24s0,.53-.09.92a14.12,14.12,0,0,1-.72,2.9,8.4,8.4,0,0,1-5.63,5.46l-.77.22.53.59,6.07,6.81h-2.17Zm-.25-19.88-.61-.14V70.42l.67-.24c2.86-1,6.75-3.2,6.75-8a8.33,8.33,0,0,0-1.86-5.62A8.86,8.86,0,0,0,105.87,53.77ZM76.19,76.85v.5h9.45v2h-18V51.14h18v2H76.19v7.05h4.6v2h-4.6V76.85Zm60.41-6.48,2.94-19.23h2l-4.35,28.23h-8.65l-4.69-28.23h8.56l3.21,19.24Zm29.63,9h-2.49L163,74.92l-.07-.42H158.4l-.08.41-.8,4.46H148.7c.82-5,2-12,3-17.8.53-3,1-5.74,1.35-7.69.17-1,.31-1.77.41-2.31l.07-.43h8.23ZM48.64,79.08l0,.29h-14l0-.26-.33-1.91c-.29-1.65-.69-4-1.18-6.84-1-5.67-2.29-13.24-3.6-20.87C26.77,34.22,24.13,18.8,24,18a6.47,6.47,0,0,0-2.66-4.64,9.7,9.7,0,0,0-5.69-1.54,8.77,8.77,0,0,0-6.95,3.26c-1.77,2.15-2.85,5.31-3,9.4a12.68,12.68,0,0,0,.92,5.41,6.31,6.31,0,0,0,3.11,3.43,16.34,16.34,0,0,0,3.74,1l.18,0c.41.07.74.12,1,.18a4.18,4.18,0,0,1-.63.4,7.2,7.2,0,0,1-4.92.35h0c-3.81-1-6.8-4.32-8.14-9.4A20.1,20.1,0,0,1,6.36,7.15C10.61,2.79,16.24.5,20.11.5a16.54,16.54,0,0,1,10.6,3.69L31,3.8l-.31.39A17.93,17.93,0,0,1,32.8,6.33a18.23,18.23,0,0,1,1.79,2.43,24.74,24.74,0,0,1,1.82,4.81c.24.84.44,1.6.58,2.15.07.28.13.51.16.66l.05.18v0h0l8.25,49.94h1c1.93-12,4-25,5.77-35.3.86-5.16,1.63-9.64,2.22-13s1-5.55,1.19-6.13h0v0h0v0a.45.45,0,0,1,0-.08l.09-.32c.08-.27.22-.67.41-1.15A16.27,16.27,0,0,1,58.11,7,11.86,11.86,0,0,1,68.08,2,10.57,10.57,0,0,1,76,5.3c2.21,2.29,4,5.84,5.25,10.88h0v.07c0,.06,0,.15,0,.27s.06.59.1,1a32.34,32.34,0,0,1,0,3.67,25.94,25.94,0,0,1-2.69,10.64,7.53,7.53,0,0,1-5,4,8,8,0,0,1-4.86-.31l-.21.45.21-.45a3.14,3.14,0,0,1-1-.71,1.06,1.06,0,0,1-.26-.47h0a9.5,9.5,0,0,1,1.56-.14A12.08,12.08,0,0,0,71.13,34a4.94,4.94,0,0,0,1.37-.59h0a5.61,5.61,0,0,0,2-2.43,13.69,13.69,0,0,0,1.21-4,26.12,26.12,0,0,0-.62-10.68c-1.24-4.72-4.1-7-7-7.55a6.38,6.38,0,0,0-6.92,3.3,11.36,11.36,0,0,0-.51,1.58c-.2.72-.42,1.63-.66,2.71-.49,2.16-1.08,5-1.72,8.27-1.28,6.54-2.8,14.85-4.24,23S51.22,63.89,50.2,69.87c-.51,3-.93,5.47-1.22,7.2C48.83,77.94,48.72,78.62,48.64,79.08Zm112.67-17h-1l-1.5,10.08-.08.57h4.06l-.08-.57Z"/></g></g></svg>